<mxfile host="app.diagrams.net" modified="2023-11-13T08:02:14.102Z" agent="Mozilla/5.0 (X11; Linux x86_64; rv:109.0) Gecko/20100101 Firefox/119.0" version="22.1.0" etag="SxZPc7_e9WSALn6ZjBkn" type="github">
  <diagram name="Page-1" id="bhF79FGASfxEs6OPb3kg">
    <mxGraphModel>
      <root>
        <mxCell id="0" />
        <mxCell id="1" parent="0" />
      </root>
    </mxGraphModel>
  </diagram>
</mxfile>
